<?xml version="1.0" encoding="utf-8"?>
<!-- Generator: Adobe Illustrator 22.1.0, SVG Export Plug-In . SVG Version: 6.00 Build 0)  -->
<svg version="1.1" id="Layer_1" xmlns="http://www.w3.org/2000/svg"  x="0px" y="0px"
	 viewBox="0 0 700 700" style="enable-background:new 0 0 700 700;" xml:space="preserve">
<path d="M350,130.2c58.7,0,113.9,22.9,155.4,64.4c85.7,85.7,85.7,225.1,0,310.8c-41.5,41.5-96.7,64.4-155.4,64.4
	c-58.7,0-113.9-22.9-155.4-64.4c-85.7-85.7-85.7-225.1,0-310.8C236.1,153.1,291.3,130.2,350,130.2 M597.5,102.5
	C529.1,34.2,439.6,0,350,0c-89.6,0-179.1,34.2-247.5,102.5c-136.6,136.7-136.6,358.3,0,495C170.8,665.8,260.4,700,350,700
	c89.6,0,179.1-34.2,247.5-102.5C734.2,460.8,734.2,239.2,597.5,102.5z M539.9,539.9c-50.8,50.7-118.2,78.7-190,78.7
	c-71.7,0-139.2-27.9-189.9-78.7C55.4,435.2,55.4,264.8,160,160.1c50.7-50.7,118.2-78.7,190-78.7c71.7,0,139.2,27.9,189.9,78.7
	C644.6,264.8,644.6,435.2,539.9,539.9z M464,325.6h-89.5V236c0-13.5-10.9-24.4-24.4-24.4c-13.5,0-24.4,10.9-24.4,24.4v114
	c0,13.5,10.9,24.4,24.4,24.4h114c13.5,0,24.4-10.9,24.4-24.4C488.4,336.5,477.4,325.6,464,325.6z"/>
</svg>
